<?xml version="1.0" encoding="utf-8"?>
<!-- Generator: Adobe Illustrator 19.0.0, SVG Export Plug-In . SVG Version: 6.00 Build 0)  -->
<svg version="1.1" id="Layer_1" xmlns="http://www.w3.org/2000/svg" xmlns:xlink="http://www.w3.org/1999/xlink" x="0px" y="0px"
	 viewBox="0 0 512 512" style="enable-background:new 0 0 512 512;" xml:space="preserve">
<style type="text/css">
	.st0{fill:#25B7D3;}
	.st1{fill:#FBEC9A;}
	.st2{fill:#FACB1B;}
	.st3{fill:#FBE158;}
	.st4{fill:#FCF6C2;}
	.st5{fill:#8E6134;}
</style>
<g id="XMLID_1_">
	<circle id="XMLID_3_" class="st0" cx="256" cy="256" r="256"/>
	<path id="XMLID_6_" class="st1" d="M256,126c71.7,0,130,58.3,130,130s-58.3,130-130,130s-130-58.3-130-130S184.3,126,256,126
		 M256,107.1c-81.9,0-148.9,67-148.9,148.9s67,148.9,148.9,148.9s148.9-67,148.9-148.9S337.9,107.1,256,107.1z"/>
	<path id="XMLID_7_" class="st2" d="M256,386c-71.7,0-130-58.3-130-130s58.3-130,130-130s130,58.3,130,130S327.7,386,256,386z"/>
	<path id="XMLID_8_" class="st3" d="M256,126c-71.7,0-130,58.3-130,130c0,37,15.8,70.1,40.2,94.5l184.3-184.3
		C326.1,141,293,126,256,126z"/>
	<path id="XMLID_9_" class="st4" d="M126,256c0-71.7,58.3-130,130-130c37,0,70.1,15.8,93.7,40.2l13.4-13.4
		c-26.8-28.4-65.4-45.7-107.1-45.7c-81.9,0-148.9,67-148.9,148.9c0,41.7,17.3,80.3,45.7,107.1l13.4-13.4C141,326.1,126,293,126,256z
		"/>
	<path id="XMLID_10_" class="st5" d="M323,310.4c-11.8,15.8-26.8,26-50.4,26c-33.1,0-55.9-21.3-64.6-52.8h-11.8
		c-5.5,0-9.5-3.9-9.5-9.5s3.9-9.5,9.5-9.5h8.7c0-2.4,0-5.5,0-8.7c0-3.2,0-7.1,0.8-10.2h-8.7c-5.5,0-9.5-3.9-9.5-9.5s3.9-9.5,9.5-9.5
		h11.8c8.7-29.9,31.5-52,63.8-52c23.6,0,37.8,9.5,49.6,22.8c1.6,1.6,3.9,5.5,3.9,9.5c0,7.1-6.3,12.6-13.4,12.6
		c-4.7,0-7.9-2.4-9.5-4.7c-8.7-10.2-17.3-15.8-30.7-15.8c-15.8,0-28.4,10.2-34.7,27.6h39.4c5.5,0,9.5,3.9,9.5,9.5s-3.9,9.5-9.5,9.5
		h-44.9c0,3.2,0,6.3,0,10.2c0,3.2,0,6.3,0,8.7h44.1c5.5,0,9.5,4.7,9.5,9.5c0,5.5-3.9,9.5-9.5,9.5h-40.2c6.3,18.1,18.9,28.4,37,28.4
		c13.4,0,22.1-6.3,30.7-17.3c2.4-2.4,5.5-4.7,9.5-4.7c7.1,0,12.6,5.5,12.6,11.8C325.3,306.4,324.5,309.6,323,310.4z"/>
</g>
</svg>
